{"title":"BBC Africa E06 The Future 2013 1080p x264 AC3 - alrmothe","uid":8655872,"size":6151218194,"categoryP":"video","categoryS":"hd___movies","magnet":"?xt=urn:btih:411dc357f9f1da8e8c2fb73152207a6a8e19b6af&amp;dn=BBC+Africa+E06+The+Future+2013+1080p+x264+AC3+-+alrmothe&amp;tr=udp%3A%2F%2Ftracker.openbittorrent.com%3A80&amp;tr=udp%3A%2F%2Fopen.demonii.com%3A1337&amp;tr=udp%3A%2F%2Ftracker.coppersurfer.tk%3A6969&amp;tr=udp%3A%2F%2Fexodus.desync.com%3A6969","seeders":3,"leechers":6,"uploader":".alrmothe","files":21,"time":1373217181,"description":"\n\n\n***************************************************************\n\nBBC Africa E06 The Future 2013 1080p x264 AC3 - alrmothe\n\n***************************************************************\n\nTitle : BBC David Attenborough's Africa \nYEAR: 2013\nGENRE : Documentary    \nimdb URL :http://www.imdb.com/title/tt2571774/\nFormat: Matroska\nOverall bit rate:14 Mbps\nFormat version: Version 4 / Version 2\nFile size:  5.73 GiB\nDuration: 58mn 23s\n\n***************************************************************\n\nVideo\nFormat : AVC \nFormat/Info : Advanced Video Codec \nFormat profile : &lt;a class=&quot;__cf_email__&quot; href=&quot;/cdn-cgi/l/email-protection&quot; data-cfemail=&quot;ace4c5cbc4ece098829d&quot;&gt;[email&amp;#160;protected]&lt;/a&gt;&lt;script cf-hash='f9e31' type=&quot;text/javascript&quot;&gt;\n/* &lt;![CDATA[ */!function(){try{var t=&quot;currentScript&quot;in document?document.currentScript:function(){for(var t=document.getElementsByTagName(&quot;script&quot;),e=t.length;e--;)if(t[e].getAttribute(&quot;cf-hash&quot;))return t[e]}();if(t&amp;&amp;t.previousSibling){var e,r,n,i,c=t.previousSibling,a=c.getAttribute(&quot;data-cfemail&quot;);if(a){for(e=&quot;&quot;,r=parseInt(a.substr(0,2),16),n=2;a.length-n;n+=2)i=parseInt(a.substr(n,2),16)^r,e+=String.fromCharCode(i);e=document.createTextNode(e),c.parentNode.replaceChild(e,c)}}}catch(u){}}();/* ]]&gt; */&lt;/script&gt; \nFormat settings, CABAC : Yes \nFormat settings, ReFrames : 4 frames  \nCodec ID : V_MPEG4/ISO/AVC  \nBit rate :13.4 Mbps \nWidth : 1920 pixels \nHeight :1080 pixels \nDisplay aspect ratio : 16:9 \nFrame rate : 25 fps \nColor space : YUV \nChroma subsampling : 4:2:0 \nBit depth : 8 bits \nScan type : Progressive \nBits/(Pixel*Frame) : 0.258 \nStream size: 5.35 GiB \n\n\nAudio#1 \nFormat: AC3\nBit rate :640 Kbps\nChannel(s) : 6 channels\nChannel positions:Front: L C R, Side: L R, LFE\nSampling rate: 48.0 KHz\nBit depth: 16bits\nCompression mode: Lossy\nStream size: 267 MiB\nLanguage : English\n\n\nsub : Arabic,English\n\n\n\nScreenshots\n &lt;a href=&quot;\nhttp://img577.imageshack.us/img577/8882/r7q.png&quot; rel=&quot;nofollow&quot; target=&quot;_NEW&quot;&gt;\nhttp://img577.imageshack.us/img577/8882/r7q.png&lt;/a&gt; &lt;a href=&quot;\nhttp://img4.imageshack.us/img4/4484/mqah.png&quot; rel=&quot;nofollow&quot; target=&quot;_NEW&quot;&gt;\nhttp://img4.imageshack.us/img4/4484/mqah.png&lt;/a&gt; &lt;a href=&quot;\nhttp://img199.imageshack.us/img199/2842/u4zq.png&quot; rel=&quot;nofollow&quot; target=&quot;_NEW&quot;&gt;\nhttp://img199.imageshack.us/img199/2842/u4zq.png&lt;/a&gt; &lt;a href=&quot;\nhttp://img69.imageshack.us/img69/3118/t2t.png&quot; rel=&quot;nofollow&quot; target=&quot;_NEW&quot;&gt;\nhttp://img69.imageshack.us/img69/3118/t2t.png&lt;/a&gt; &lt;a href=&quot;\nhttp://img94.imageshack.us/img94/9046/jfx.png&quot; rel=&quot;nofollow&quot; target=&quot;_NEW&quot;&gt;\nhttp://img94.imageshack.us/img94/9046/jfx.png&lt;/a&gt; &lt;a href=&quot;\nhttp://img819.imageshack.us/img819/8710/fv1.png&quot; rel=&quot;nofollow&quot; target=&quot;_NEW&quot;&gt;\nhttp://img819.imageshack.us/img819/8710/fv1.png&lt;/a&gt;\n","torrent":{"xt":"urn:btih:411dc357f9f1da8e8c2fb73152207a6a8e19b6af","amp;dn":"BBC+Africa+E06+The+Future+2013+1080p+x264+AC3+-+alrmothe","amp;tr":["udp%3A%2F%2Ftracker.openbittorrent.com%3A80","udp%3A%2F%2Fopen.demonii.com%3A1337","udp%3A%2F%2Ftracker.coppersurfer.tk%3A6969","udp%3A%2F%2Fexodus.desync.com%3A6969"],"infoHash":"411dc357f9f1da8e8c2fb73152207a6a8e19b6af","infoHashBuffer":{"type":"Buffer","data":[65,29,195,87,249,241,218,142,140,47,183,49,82,32,122,106,142,25,182,175]},"announce":[],"urlList":[]}}